<?xml version="1.0" encoding="UTF-8"?>
<svg version="1.1" xmlns="http://www.w3.org/2000/svg" width="32" height="32">
<path d="M0 0 C0.90298828 -0.02900391 1.80597656 -0.05800781 2.73632812 -0.08789062 C7.06892182 -0.12927469 9.5020709 -0.10990548 13.26171875 2.20703125 C17.12813421 6.43420758 16.44205557 10.64345718 16.5 16.125 C16.52900391 17.02798828 16.55800781 17.93097656 16.58789062 18.86132812 C16.62927469 23.19392182 16.60990548 25.6270709 14.29296875 29.38671875 C9.97735463 33.33402443 5.47243484 32.60501938 -0.125 32.6875 C-1.55102539 32.74357422 -1.55102539 32.74357422 -3.00585938 32.80078125 C-7.43306992 32.85646943 -10.0863144 32.74531386 -13.9453125 30.4453125 C-16.65455106 25.89968629 -16.50723209 22.00886366 -16.375 16.8125 C-16.38595703 15.87535156 -16.39691406 14.93820312 -16.40820312 13.97265625 C-16.36160446 9.59238201 -16.2408068 7.00619935 -13.90234375 3.21875 C-9.68353186 -0.62943729 -5.46373877 0.05775622 0 0 Z " fill="#F1F1F2" transform="translate(15.8125,-0.3125)"/>
<path d="M0 0 C2.5625 0.1875 2.5625 0.1875 4.5625 2.1875 C4.8125 5.1875 4.8125 5.1875 4.5625 8.1875 C2.5625 10.1875 2.5625 10.1875 0 10.375 C-2.4375 10.1875 -2.4375 10.1875 -3.4375 9.1875 C-3.5703125 7.375 -3.5703125 7.375 -3.5625 5.1875 C-3.56507813 4.465625 -3.56765625 3.74375 -3.5703125 3 C-3.36228014 0.16097012 -2.84416607 0.21878201 0 0 Z " fill="#78797B" transform="translate(11.4375,10.8125)"/>
<path d="M0 0 C-0.185625 0.763125 -0.37125 1.52625 -0.5625 2.3125 C-1.22819173 5.08967375 -1.22819173 5.08967375 0 8 C-0.598125 7.814375 -1.19625 7.62875 -1.8125 7.4375 C-4.16408762 6.77906313 -4.16408762 6.77906313 -7 8 C-7 5.69 -7 3.38 -7 1 C-2.25 0 -2.25 0 0 0 Z " fill="#4E4F53" transform="translate(24,13)"/>
<path d="M0 0 C2.5625 0.1875 2.5625 0.1875 4.5625 2.1875 C4.6875 5.3125 4.6875 5.3125 4.5625 8.1875 C3.9025 8.1875 3.2425 8.1875 2.5625 8.1875 C2.2325 6.5375 1.9025 4.8875 1.5625 3.1875 C0.5725 3.1875 -0.4175 3.1875 -1.4375 3.1875 C-2.0975 4.5075 -2.7575 5.8275 -3.4375 7.1875 C-3.48004356 5.18795254 -3.47830783 3.18708364 -3.4375 1.1875 C-2.4375 0.1875 -2.4375 0.1875 0 0 Z " fill="#37383C" transform="translate(11.4375,10.8125)"/>
</svg>
