<svg width="397" height="147" viewBox="0 0 397 147" fill="none" xmlns="http://www.w3.org/2000/svg">
<g filter="url(#filter0_d_3_1587)">
<g filter="url(#filter1_d_3_1587)">
<rect x="4" width="389" height="136" rx="40" fill="#FCFCFC"/>
<path d="M29.7632 33V16.6709H33.0874V30.2261H41.353V33H29.7632ZM43.7114 19.4561V16.5361H46.8672V19.4561H43.7114ZM43.7114 33V21.0732H46.8672V33H43.7114ZM49.877 21.0732H52.7856V22.7017C53.8263 21.4364 55.0654 20.8037 56.5029 20.8037C57.2666 20.8037 57.9292 20.9609 58.4907 21.2754C59.0522 21.5898 59.5127 22.0653 59.8721 22.7017C60.3962 22.0653 60.9614 21.5898 61.5679 21.2754C62.1743 20.9609 62.8219 20.8037 63.5107 20.8037C64.3867 20.8037 65.1279 20.9834 65.7344 21.3428C66.3408 21.6947 66.7938 22.215 67.0933 22.9038C67.3104 23.4129 67.4189 24.2365 67.4189 25.3745V33H64.2632V26.1831C64.2632 25.0002 64.1546 24.2365 63.9375 23.8921C63.6455 23.4429 63.1963 23.2183 62.5898 23.2183C62.1481 23.2183 61.7326 23.353 61.3433 23.6226C60.9539 23.8921 60.6732 24.2889 60.501 24.813C60.3288 25.3296 60.2427 26.1494 60.2427 27.2725V33H57.0869V26.4639C57.0869 25.3034 57.0308 24.5547 56.9185 24.2178C56.8062 23.8809 56.6302 23.63 56.3906 23.4653C56.1585 23.3006 55.8403 23.2183 55.436 23.2183C54.9494 23.2183 54.5114 23.3493 54.1221 23.6113C53.7327 23.8734 53.452 24.2515 53.2798 24.7456C53.1151 25.2397 53.0327 26.0596 53.0327 27.2051V33H49.877V21.0732ZM70.5747 19.4561V16.5361H73.7305V19.4561H70.5747ZM70.5747 33V21.0732H73.7305V33H70.5747ZM82.4453 21.0732V23.5889H80.2891V28.3955C80.2891 29.3688 80.3078 29.9378 80.3452 30.1025C80.3901 30.2598 80.4837 30.3908 80.626 30.4956C80.7757 30.6004 80.9554 30.6528 81.165 30.6528C81.457 30.6528 81.88 30.5518 82.4341 30.3496L82.7036 32.7979C81.9699 33.1123 81.1388 33.2695 80.2104 33.2695C79.6414 33.2695 79.1286 33.1759 78.6719 32.9888C78.2152 32.7941 77.8783 32.547 77.6611 32.2476C77.4515 31.9406 77.3055 31.5288 77.2231 31.0122C77.1558 30.6453 77.1221 29.9041 77.1221 28.7886V23.5889H75.6733V21.0732H77.1221V18.7036L80.2891 16.8618V21.0732H82.4453ZM90.3853 24.8691C90.3853 23.1921 90.6361 21.7845 91.1377 20.6465C91.512 19.8079 92.0212 19.0555 92.665 18.3892C93.3164 17.7228 94.0277 17.2287 94.7988 16.9067C95.8245 16.4725 97.0075 16.2554 98.3477 16.2554C100.773 16.2554 102.713 17.0078 104.165 18.5127C105.625 20.0176 106.355 22.1102 106.355 24.7905C106.355 27.4484 105.632 29.5298 104.188 31.0347C102.743 32.5321 100.811 33.2808 98.3926 33.2808C95.9443 33.2808 93.9977 32.5358 92.5527 31.0459C91.1077 29.5485 90.3853 27.4896 90.3853 24.8691ZM93.8105 24.7568C93.8105 26.6211 94.241 28.0361 95.1021 29.002C95.9631 29.9603 97.0562 30.4395 98.3813 30.4395C99.7065 30.4395 100.792 29.964 101.638 29.0132C102.492 28.0549 102.918 26.6211 102.918 24.7119C102.918 22.8252 102.503 21.4176 101.672 20.4893C100.848 19.5609 99.7515 19.0967 98.3813 19.0967C97.0112 19.0967 95.9069 19.5684 95.0684 20.5117C94.2298 21.4476 93.8105 22.8626 93.8105 24.7568ZM111.959 33H108.803V21.0732H111.734V22.769C112.236 21.9679 112.685 21.4401 113.082 21.1855C113.486 20.931 113.943 20.8037 114.452 20.8037C115.171 20.8037 115.863 21.0021 116.53 21.3989L115.553 24.1504C115.021 23.806 114.527 23.6338 114.07 23.6338C113.629 23.6338 113.254 23.7573 112.947 24.0044C112.64 24.244 112.397 24.682 112.217 25.3184C112.045 25.9548 111.959 27.2874 111.959 29.3164V33ZM128.838 33H125.907V31.248C125.421 31.9294 124.844 32.4385 124.178 32.7754C123.519 33.1048 122.853 33.2695 122.179 33.2695C120.809 33.2695 119.633 32.7192 118.652 31.6187C117.679 30.5106 117.192 28.9683 117.192 26.9917C117.192 24.9702 117.668 23.4354 118.619 22.3872C119.569 21.3315 120.771 20.8037 122.224 20.8037C123.556 20.8037 124.709 21.3577 125.683 22.4658V16.5361H128.838V33ZM120.416 26.7783C120.416 28.0511 120.591 28.972 120.943 29.541C121.452 30.3646 122.164 30.7764 123.077 30.7764C123.803 30.7764 124.421 30.4694 124.93 29.8555C125.439 29.234 125.694 28.3094 125.694 27.0815C125.694 25.7114 125.447 24.7269 124.953 24.1279C124.458 23.5215 123.826 23.2183 123.055 23.2183C122.306 23.2183 121.677 23.5177 121.168 24.1167C120.666 24.7082 120.416 25.5954 120.416 26.7783ZM138.867 29.2041L142.012 29.7319C141.607 30.8849 140.967 31.7646 140.091 32.3711C139.223 32.9701 138.133 33.2695 136.823 33.2695C134.749 33.2695 133.215 32.592 132.219 31.2368C131.433 30.1512 131.04 28.7811 131.04 27.1265C131.04 25.1499 131.556 23.6038 132.589 22.4883C133.623 21.3652 134.929 20.8037 136.509 20.8037C138.283 20.8037 139.683 21.3914 140.709 22.5669C141.735 23.7349 142.225 25.528 142.18 27.9463H134.274C134.296 28.8822 134.551 29.6121 135.038 30.1362C135.524 30.6528 136.131 30.9111 136.857 30.9111C137.351 30.9111 137.767 30.7764 138.104 30.5068C138.44 30.2373 138.695 29.8031 138.867 29.2041ZM139.047 26.0146C139.024 25.1012 138.789 24.4087 138.339 23.937C137.89 23.4578 137.344 23.2183 136.7 23.2183C136.011 23.2183 135.442 23.4691 134.993 23.9707C134.543 24.4723 134.323 25.1536 134.33 26.0146H139.047ZM147.784 33H144.628V21.0732H147.56V22.769C148.061 21.9679 148.51 21.4401 148.907 21.1855C149.312 20.931 149.768 20.8037 150.277 20.8037C150.996 20.8037 151.689 21.0021 152.355 21.3989L151.378 24.1504C150.846 23.806 150.352 23.6338 149.896 23.6338C149.454 23.6338 149.079 23.7573 148.772 24.0044C148.465 24.244 148.222 24.682 148.042 25.3184C147.87 25.9548 147.784 27.2874 147.784 29.3164V33ZM152.613 29.5972L155.78 29.1143C155.915 29.7282 156.188 30.1961 156.6 30.5181C157.012 30.8325 157.588 30.9897 158.33 30.9897C159.146 30.9897 159.76 30.84 160.171 30.5405C160.448 30.3309 160.587 30.0501 160.587 29.6982C160.587 29.4587 160.512 29.2603 160.362 29.103C160.205 28.9533 159.853 28.8148 159.307 28.6875C156.761 28.126 155.148 27.6131 154.466 27.1489C153.523 26.505 153.051 25.6104 153.051 24.4648C153.051 23.4316 153.459 22.5632 154.275 21.8594C155.091 21.1556 156.357 20.8037 158.071 20.8037C159.703 20.8037 160.916 21.0695 161.71 21.6011C162.504 22.1326 163.05 22.9188 163.35 23.9595L160.374 24.5098C160.246 24.0456 160.003 23.6899 159.644 23.4429C159.292 23.1958 158.786 23.0723 158.127 23.0723C157.296 23.0723 156.701 23.1883 156.342 23.4204C156.102 23.5851 155.982 23.7985 155.982 24.0605C155.982 24.2852 156.087 24.4761 156.297 24.6333C156.581 24.8429 157.562 25.1387 159.239 25.5205C160.924 25.9023 162.099 26.3703 162.766 26.9243C163.424 27.4858 163.754 28.2682 163.754 29.2715C163.754 30.3646 163.297 31.3042 162.384 32.0903C161.47 32.8765 160.119 33.2695 158.33 33.2695C156.705 33.2695 155.417 32.9401 154.466 32.2812C153.523 31.6224 152.905 30.7277 152.613 29.5972Z" fill="black" fill-opacity="0.99"/>
<path d="M33.3794 62.8403C32.2638 61.4328 31.3205 59.7856 30.5493 57.8989C29.7782 56.0122 29.3926 54.0581 29.3926 52.0366C29.3926 50.2547 29.6808 48.5477 30.2573 46.9155C30.9312 45.0213 31.9718 43.1346 33.3794 41.2554H34.8281C33.9222 42.8127 33.3232 43.9245 33.0312 44.5908C32.5745 45.624 32.2152 46.7021 31.9531 47.8252C31.6312 49.2253 31.4702 50.6328 31.4702 52.0479C31.4702 55.6491 32.5895 59.2466 34.8281 62.8403H33.3794ZM35.6255 58L41.9482 41.5361H44.2954L51.0337 58H48.5518L46.6313 53.0137H39.7471L37.939 58H35.6255ZM40.376 51.2393H45.9575L44.2393 46.6797C43.7152 45.2946 43.3258 44.1566 43.0713 43.2656C42.8617 44.3213 42.5659 45.3695 42.1841 46.4102L40.376 51.2393ZM60.2539 58V56.4951C59.4977 57.6781 58.3859 58.2695 56.9185 58.2695C55.9676 58.2695 55.0916 58.0075 54.2905 57.4834C53.4969 56.9593 52.8792 56.2293 52.4375 55.2935C52.0033 54.3501 51.7861 53.2682 51.7861 52.0479C51.7861 50.8574 51.9845 49.7793 52.3813 48.8135C52.7782 47.8402 53.3734 47.0952 54.167 46.5786C54.9606 46.062 55.8478 45.8037 56.8286 45.8037C57.5474 45.8037 58.1875 45.9572 58.749 46.2642C59.3105 46.5636 59.7673 46.9567 60.1191 47.4434V41.5361H62.1294V58H60.2539ZM53.8638 52.0479C53.8638 53.5752 54.1857 54.717 54.8296 55.4731C55.4735 56.2293 56.2334 56.6074 57.1094 56.6074C57.9928 56.6074 58.7415 56.248 59.3555 55.5293C59.9769 54.8031 60.2876 53.6987 60.2876 52.2163C60.2876 50.5841 59.9731 49.3862 59.3442 48.6226C58.7153 47.8589 57.9404 47.4771 57.0195 47.4771C56.1211 47.4771 55.3687 47.8439 54.7622 48.5776C54.1632 49.3114 53.8638 50.4681 53.8638 52.0479ZM68.6318 58L64.0947 46.0732H66.2285L68.7891 53.2158C69.0661 53.987 69.3206 54.7881 69.5527 55.6191C69.7324 54.9902 69.9832 54.234 70.3052 53.3506L72.9556 46.0732H75.0332L70.5186 58H68.6318ZM84.6016 56.5288C83.8529 57.1652 83.1304 57.6144 82.4341 57.8765C81.7453 58.1385 81.0041 58.2695 80.2104 58.2695C78.9002 58.2695 77.8932 57.9513 77.1895 57.3149C76.4857 56.6711 76.1338 55.8512 76.1338 54.8555C76.1338 54.2715 76.2648 53.7399 76.5269 53.2607C76.7964 52.7741 77.1445 52.3848 77.5713 52.0928C78.0055 51.8008 78.4922 51.5799 79.0312 51.4302C79.4281 51.3254 80.027 51.2243 80.8281 51.127C82.4603 50.9323 83.6619 50.7002 84.4331 50.4307C84.4406 50.1536 84.4443 49.9777 84.4443 49.9028C84.4443 49.0793 84.2534 48.499 83.8716 48.1621C83.355 47.7054 82.5876 47.4771 81.5693 47.4771C80.6185 47.4771 79.9147 47.6455 79.458 47.9824C79.0088 48.3118 78.6756 48.8996 78.4585 49.7456L76.4819 49.4761C76.6616 48.63 76.9574 47.9487 77.3691 47.4321C77.7809 46.908 78.3761 46.5075 79.1548 46.2305C79.9334 45.946 80.8356 45.8037 81.8613 45.8037C82.8796 45.8037 83.7069 45.9235 84.3433 46.1631C84.9797 46.4027 85.4476 46.7059 85.7471 47.0728C86.0465 47.4321 86.2562 47.8888 86.376 48.4429C86.4434 48.7873 86.4771 49.4087 86.4771 50.3071V53.0024C86.4771 54.8817 86.5182 56.0721 86.6006 56.5737C86.6904 57.0679 86.8626 57.5433 87.1172 58H85.0059C84.7962 57.5807 84.6615 57.0903 84.6016 56.5288ZM84.4331 52.0142C83.6994 52.3136 82.5988 52.5682 81.1313 52.7778C80.3003 52.8976 79.7126 53.0324 79.3682 53.1821C79.0238 53.3319 78.758 53.5527 78.5708 53.8447C78.3836 54.1292 78.29 54.4474 78.29 54.7993C78.29 55.3384 78.4922 55.7876 78.8965 56.147C79.3083 56.5063 79.9072 56.686 80.6934 56.686C81.472 56.686 82.1646 56.5176 82.771 56.1807C83.3774 55.8363 83.8229 55.3683 84.1074 54.7769C84.3245 54.3201 84.4331 53.6463 84.4331 52.7554V52.0142ZM89.6216 58V46.0732H91.4409V47.769C92.3169 46.4588 93.5822 45.8037 95.2368 45.8037C95.9556 45.8037 96.6144 45.9347 97.2134 46.1968C97.8198 46.4513 98.2728 46.7882 98.5723 47.2075C98.8717 47.6268 99.0814 48.1247 99.2012 48.7012C99.276 49.0755 99.3135 49.7306 99.3135 50.6665V58H97.292V50.7451C97.292 49.9215 97.2134 49.3076 97.0562 48.9033C96.8989 48.4915 96.6182 48.1659 96.2139 47.9263C95.8171 47.6792 95.3491 47.5557 94.8101 47.5557C93.9491 47.5557 93.2041 47.8289 92.5752 48.3755C91.9538 48.922 91.6431 49.959 91.6431 51.4863V58H89.6216ZM110.207 53.6313L112.195 53.8896C111.978 55.2598 111.42 56.3341 110.521 57.1128C109.631 57.884 108.534 58.2695 107.231 58.2695C105.599 58.2695 104.285 57.738 103.289 56.6748C102.301 55.6042 101.807 54.0731 101.807 52.0815C101.807 50.7938 102.02 49.667 102.447 48.7012C102.874 47.7354 103.521 47.0129 104.39 46.5337C105.266 46.047 106.216 45.8037 107.242 45.8037C108.537 45.8037 109.597 46.1331 110.42 46.792C111.244 47.4434 111.772 48.3717 112.004 49.5771L110.039 49.8804C109.851 49.0793 109.518 48.4766 109.039 48.0723C108.567 47.668 107.995 47.4658 107.321 47.4658C106.303 47.4658 105.475 47.8327 104.839 48.5664C104.202 49.2926 103.884 50.4456 103.884 52.0254C103.884 53.6276 104.191 54.7918 104.805 55.5181C105.419 56.2443 106.22 56.6074 107.208 56.6074C108.002 56.6074 108.665 56.3641 109.196 55.8774C109.728 55.3908 110.065 54.6421 110.207 53.6313ZM122.089 54.1592L124.178 54.4175C123.848 55.6379 123.238 56.585 122.347 57.2588C121.456 57.9326 120.318 58.2695 118.933 58.2695C117.189 58.2695 115.804 57.7342 114.778 56.6636C113.76 55.5854 113.25 54.0768 113.25 52.1377C113.25 50.1312 113.767 48.5739 114.8 47.4658C115.833 46.3577 117.174 45.8037 118.821 45.8037C120.416 45.8037 121.718 46.3465 122.729 47.4321C123.74 48.5177 124.245 50.0451 124.245 52.0142C124.245 52.134 124.241 52.3136 124.234 52.5532H115.339C115.414 53.8634 115.785 54.8667 116.451 55.563C117.118 56.2593 117.949 56.6074 118.944 56.6074C119.686 56.6074 120.318 56.4128 120.842 56.0234C121.366 55.6341 121.782 55.0127 122.089 54.1592ZM115.452 50.8911H122.111C122.021 49.8879 121.767 49.1354 121.348 48.6338C120.704 47.8551 119.869 47.4658 118.843 47.4658C117.915 47.4658 117.132 47.7765 116.496 48.3979C115.867 49.0194 115.519 49.8504 115.452 50.8911ZM134.465 58V56.4951C133.709 57.6781 132.597 58.2695 131.129 58.2695C130.179 58.2695 129.303 58.0075 128.501 57.4834C127.708 56.9593 127.09 56.2293 126.648 55.2935C126.214 54.3501 125.997 53.2682 125.997 52.0479C125.997 50.8574 126.195 49.7793 126.592 48.8135C126.989 47.8402 127.584 47.0952 128.378 46.5786C129.172 46.062 130.059 45.8037 131.04 45.8037C131.758 45.8037 132.398 45.9572 132.96 46.2642C133.521 46.5636 133.978 46.9567 134.33 47.4434V41.5361H136.34V58H134.465ZM128.075 52.0479C128.075 53.5752 128.397 54.717 129.041 55.4731C129.684 56.2293 130.444 56.6074 131.32 56.6074C132.204 56.6074 132.952 56.248 133.566 55.5293C134.188 54.8031 134.499 53.6987 134.499 52.2163C134.499 50.5841 134.184 49.3862 133.555 48.6226C132.926 47.8589 132.151 47.4771 131.23 47.4771C130.332 47.4771 129.58 47.8439 128.973 48.5776C128.374 49.3114 128.075 50.4681 128.075 52.0479ZM149.952 58V43.479H144.527V41.5361H157.577V43.479H152.13V58H149.952ZM158.689 58V46.0732H160.508V47.8813C160.972 47.0353 161.399 46.4775 161.789 46.208C162.185 45.9385 162.62 45.8037 163.091 45.8037C163.773 45.8037 164.465 46.0208 165.169 46.4551L164.473 48.3306C163.979 48.0386 163.484 47.8926 162.99 47.8926C162.549 47.8926 162.152 48.0273 161.8 48.2969C161.448 48.5589 161.197 48.9258 161.047 49.3975C160.823 50.1162 160.71 50.9023 160.71 51.7559V58H158.689ZM174.153 56.5288C173.405 57.1652 172.682 57.6144 171.986 57.8765C171.297 58.1385 170.556 58.2695 169.762 58.2695C168.452 58.2695 167.445 57.9513 166.741 57.3149C166.037 56.6711 165.686 55.8512 165.686 54.8555C165.686 54.2715 165.817 53.7399 166.079 53.2607C166.348 52.7741 166.696 52.3848 167.123 52.0928C167.557 51.8008 168.044 51.5799 168.583 51.4302C168.98 51.3254 169.579 51.2243 170.38 51.127C172.012 50.9323 173.214 50.7002 173.985 50.4307C173.992 50.1536 173.996 49.9777 173.996 49.9028C173.996 49.0793 173.805 48.499 173.423 48.1621C172.907 47.7054 172.139 47.4771 171.121 47.4771C170.17 47.4771 169.466 47.6455 169.01 47.9824C168.561 48.3118 168.227 48.8996 168.01 49.7456L166.034 49.4761C166.213 48.63 166.509 47.9487 166.921 47.4321C167.333 46.908 167.928 46.5075 168.707 46.2305C169.485 45.946 170.387 45.8037 171.413 45.8037C172.431 45.8037 173.259 45.9235 173.895 46.1631C174.531 46.4027 174.999 46.7059 175.299 47.0728C175.598 47.4321 175.808 47.8888 175.928 48.4429C175.995 48.7873 176.029 49.4087 176.029 50.3071V53.0024C176.029 54.8817 176.07 56.0721 176.152 56.5737C176.242 57.0679 176.414 57.5433 176.669 58H174.558C174.348 57.5807 174.213 57.0903 174.153 56.5288ZM173.985 52.0142C173.251 52.3136 172.151 52.5682 170.683 52.7778C169.852 52.8976 169.264 53.0324 168.92 53.1821C168.576 53.3319 168.31 53.5527 168.123 53.8447C167.935 54.1292 167.842 54.4474 167.842 54.7993C167.842 55.3384 168.044 55.7876 168.448 56.147C168.86 56.5063 169.459 56.686 170.245 56.686C171.024 56.686 171.716 56.5176 172.323 56.1807C172.929 55.8363 173.375 55.3683 173.659 54.7769C173.876 54.3201 173.985 53.6463 173.985 52.7554V52.0142ZM186.911 58V56.4951C186.155 57.6781 185.043 58.2695 183.576 58.2695C182.625 58.2695 181.749 58.0075 180.948 57.4834C180.154 56.9593 179.536 56.2293 179.095 55.2935C178.66 54.3501 178.443 53.2682 178.443 52.0479C178.443 50.8574 178.642 49.7793 179.039 48.8135C179.435 47.8402 180.031 47.0952 180.824 46.5786C181.618 46.062 182.505 45.8037 183.486 45.8037C184.205 45.8037 184.845 45.9572 185.406 46.2642C185.968 46.5636 186.424 46.9567 186.776 47.4434V41.5361H188.787V58H186.911ZM180.521 52.0479C180.521 53.5752 180.843 54.717 181.487 55.4731C182.131 56.2293 182.891 56.6074 183.767 56.6074C184.65 56.6074 185.399 56.248 186.013 55.5293C186.634 54.8031 186.945 53.6987 186.945 52.2163C186.945 50.5841 186.63 49.3862 186.001 48.6226C185.373 47.8589 184.598 47.4771 183.677 47.4771C182.778 47.4771 182.026 47.8439 181.419 48.5776C180.82 49.3114 180.521 50.4681 180.521 52.0479ZM200.141 54.1592L202.229 54.4175C201.9 55.6379 201.29 56.585 200.399 57.2588C199.508 57.9326 198.37 58.2695 196.985 58.2695C195.24 58.2695 193.855 57.7342 192.83 56.6636C191.811 55.5854 191.302 54.0768 191.302 52.1377C191.302 50.1312 191.819 48.5739 192.852 47.4658C193.885 46.3577 195.225 45.8037 196.873 45.8037C198.467 45.8037 199.77 46.3465 200.781 47.4321C201.792 48.5177 202.297 50.0451 202.297 52.0142C202.297 52.134 202.293 52.3136 202.286 52.5532H193.391C193.466 53.8634 193.837 54.8667 194.503 55.563C195.169 56.2593 196 56.6074 196.996 56.6074C197.737 56.6074 198.37 56.4128 198.894 56.0234C199.418 55.6341 199.834 55.0127 200.141 54.1592ZM193.503 50.8911H200.163C200.073 49.8879 199.819 49.1354 199.399 48.6338C198.756 47.8551 197.921 47.4658 196.895 47.4658C195.967 47.4658 195.184 47.7765 194.548 48.3979C193.919 49.0194 193.571 49.8504 193.503 50.8911ZM204.756 58V46.0732H206.576V47.8813C207.04 47.0353 207.467 46.4775 207.856 46.208C208.253 45.9385 208.687 45.8037 209.159 45.8037C209.84 45.8037 210.533 46.0208 211.236 46.4551L210.54 48.3306C210.046 48.0386 209.552 47.8926 209.058 47.8926C208.616 47.8926 208.219 48.0273 207.867 48.2969C207.515 48.5589 207.264 48.9258 207.115 49.3975C206.89 50.1162 206.778 50.9023 206.778 51.7559V58H204.756ZM211.629 54.4399L213.628 54.1255C213.741 54.9266 214.051 55.5405 214.561 55.9673C215.077 56.394 215.796 56.6074 216.717 56.6074C217.645 56.6074 218.334 56.4202 218.783 56.0459C219.232 55.6641 219.457 55.2186 219.457 54.7095C219.457 54.2528 219.259 53.8934 218.862 53.6313C218.585 53.4517 217.896 53.2233 216.795 52.9463C215.313 52.5719 214.284 52.25 213.707 51.9805C213.138 51.7035 212.704 51.3254 212.404 50.8462C212.112 50.3595 211.966 49.8242 211.966 49.2402C211.966 48.7087 212.086 48.2183 212.326 47.769C212.573 47.3123 212.906 46.9342 213.325 46.6348C213.64 46.4027 214.066 46.208 214.605 46.0508C215.152 45.8861 215.736 45.8037 216.357 45.8037C217.293 45.8037 218.113 45.9385 218.817 46.208C219.528 46.4775 220.052 46.8444 220.389 47.3086C220.726 47.7653 220.958 48.3792 221.085 49.1504L219.109 49.4199C219.019 48.806 218.757 48.3268 218.323 47.9824C217.896 47.638 217.29 47.4658 216.503 47.4658C215.575 47.4658 214.912 47.6193 214.516 47.9263C214.119 48.2332 213.92 48.5926 213.92 49.0044C213.92 49.2664 214.003 49.5023 214.167 49.7119C214.332 49.929 214.59 50.1087 214.942 50.251C215.145 50.3258 215.74 50.498 216.728 50.7676C218.158 51.1494 219.154 51.4639 219.715 51.7109C220.284 51.9505 220.73 52.3024 221.052 52.7666C221.374 53.2308 221.535 53.8073 221.535 54.4961C221.535 55.1699 221.336 55.8063 220.939 56.4053C220.55 56.9967 219.985 57.4572 219.244 57.7866C218.502 58.1086 217.664 58.2695 216.728 58.2695C215.178 58.2695 213.995 57.9476 213.179 57.3037C212.371 56.6598 211.854 55.7052 211.629 54.4399ZM225.263 62.8403H223.814C226.053 59.2466 227.172 55.6491 227.172 52.0479C227.172 50.6403 227.011 49.244 226.689 47.8589C226.435 46.7358 226.079 45.6577 225.623 44.6245C225.331 43.9507 224.728 42.8276 223.814 41.2554H225.263C226.671 43.1346 227.711 45.0213 228.385 46.9155C228.962 48.5477 229.25 50.2547 229.25 52.0366C229.25 54.0581 228.861 56.0122 228.082 57.8989C227.311 59.7856 226.371 61.4328 225.263 62.8403Z" fill="#70707B" fill-opacity="0.99"/>
<path d="M31.4648 96V81.6836H33.3594V94.3105H40.4102V96H31.4648ZM49.5508 92.6602L51.3672 92.8848C51.0807 93.946 50.5501 94.7695 49.7754 95.3555C49.0007 95.9414 48.0111 96.2344 46.8066 96.2344C45.2897 96.2344 44.0853 95.7689 43.1934 94.8379C42.3079 93.9004 41.8652 92.5885 41.8652 90.9023C41.8652 89.1576 42.3145 87.8034 43.2129 86.8398C44.1113 85.8763 45.2767 85.3945 46.709 85.3945C48.0957 85.3945 49.2285 85.8665 50.1074 86.8105C50.9863 87.7546 51.4258 89.0827 51.4258 90.7949C51.4258 90.8991 51.4225 91.0553 51.416 91.2637H43.6816C43.7467 92.403 44.069 93.2754 44.6484 93.8809C45.2279 94.4863 45.9505 94.7891 46.8164 94.7891C47.4609 94.7891 48.0111 94.6198 48.4668 94.2812C48.9225 93.9427 49.2839 93.4023 49.5508 92.6602ZM43.7793 89.8184H49.5703C49.4922 88.946 49.2708 88.2917 48.9062 87.8555C48.3464 87.1784 47.6204 86.8398 46.7285 86.8398C45.9212 86.8398 45.2409 87.11 44.6875 87.6504C44.1406 88.1908 43.8379 88.9134 43.7793 89.8184ZM60.3516 94.7207C59.7005 95.2741 59.0723 95.6647 58.4668 95.8926C57.8678 96.1204 57.2233 96.2344 56.5332 96.2344C55.3939 96.2344 54.5182 95.9577 53.9062 95.4043C53.2943 94.8444 52.9883 94.1315 52.9883 93.2656C52.9883 92.7578 53.1022 92.2956 53.3301 91.8789C53.5645 91.4557 53.8672 91.1172 54.2383 90.8633C54.6159 90.6094 55.0391 90.4173 55.5078 90.2871C55.8529 90.196 56.3737 90.1081 57.0703 90.0234C58.4896 89.8542 59.5345 89.6523 60.2051 89.418C60.2116 89.1771 60.2148 89.0241 60.2148 88.959C60.2148 88.2428 60.0488 87.7383 59.7168 87.4453C59.2676 87.0482 58.6003 86.8496 57.7148 86.8496C56.888 86.8496 56.276 86.9961 55.8789 87.2891C55.4883 87.5755 55.1986 88.0866 55.0098 88.8223L53.291 88.5879C53.4473 87.8522 53.7044 87.2598 54.0625 86.8105C54.4206 86.3548 54.9382 86.0065 55.6152 85.7656C56.2923 85.5182 57.0768 85.3945 57.9688 85.3945C58.8542 85.3945 59.5736 85.4987 60.127 85.707C60.6803 85.9154 61.0872 86.179 61.3477 86.498C61.6081 86.8105 61.7904 87.2077 61.8945 87.6895C61.9531 87.9889 61.9824 88.5293 61.9824 89.3105V91.6543C61.9824 93.2884 62.0182 94.3236 62.0898 94.7598C62.168 95.1895 62.3177 95.6029 62.5391 96H60.7031C60.5208 95.6354 60.4036 95.209 60.3516 94.7207ZM60.2051 90.7949C59.5671 91.0553 58.61 91.2767 57.334 91.459C56.6113 91.5632 56.1003 91.6803 55.8008 91.8105C55.5013 91.9408 55.2702 92.1328 55.1074 92.3867C54.9447 92.6341 54.8633 92.9108 54.8633 93.2168C54.8633 93.6855 55.0391 94.0762 55.3906 94.3887C55.7487 94.7012 56.2695 94.8574 56.9531 94.8574C57.6302 94.8574 58.2324 94.7109 58.7598 94.418C59.2871 94.1185 59.6745 93.7116 59.9219 93.1973C60.1107 92.8001 60.2051 92.2142 60.2051 91.4395V90.7949ZM64.6973 96V85.6289H66.2793V87.2012C66.6829 86.4655 67.054 85.9805 67.3926 85.7461C67.7376 85.5117 68.1152 85.3945 68.5254 85.3945C69.1178 85.3945 69.7201 85.5833 70.332 85.9609L69.7266 87.5918C69.2969 87.3379 68.8672 87.2109 68.4375 87.2109C68.0534 87.2109 67.7083 87.3281 67.4023 87.5625C67.0964 87.7904 66.8783 88.1094 66.748 88.5195C66.5527 89.1445 66.4551 89.8281 66.4551 90.5703V96H64.6973ZM71.377 96V85.6289H72.959V87.1035C73.7207 85.9642 74.821 85.3945 76.2598 85.3945C76.8848 85.3945 77.4577 85.5085 77.9785 85.7363C78.5059 85.9577 78.8997 86.2507 79.1602 86.6152C79.4206 86.9798 79.6029 87.4128 79.707 87.9141C79.7721 88.2396 79.8047 88.8092 79.8047 89.623V96H78.0469V89.6914C78.0469 88.9753 77.9785 88.4414 77.8418 88.0898C77.7051 87.7318 77.4609 87.4486 77.1094 87.2402C76.7643 87.0254 76.3574 86.918 75.8887 86.918C75.14 86.918 74.4922 87.1556 73.9453 87.6309C73.4049 88.1061 73.1348 89.0078 73.1348 90.3359V96H71.377ZM88.0762 96V81.6836H89.834V86.8203C90.6543 85.8698 91.6895 85.3945 92.9395 85.3945C93.7077 85.3945 94.375 85.5475 94.9414 85.8535C95.5078 86.153 95.9115 86.5697 96.1523 87.1035C96.3997 87.6374 96.5234 88.4121 96.5234 89.4277V96H94.7656V89.4277C94.7656 88.5488 94.5736 87.9108 94.1895 87.5137C93.8118 87.11 93.2747 86.9082 92.5781 86.9082C92.0573 86.9082 91.5658 87.0449 91.1035 87.3184C90.6478 87.5853 90.3223 87.9499 90.127 88.4121C89.9316 88.8743 89.834 89.5124 89.834 90.3262V96H88.0762ZM98.5547 90.8145C98.5547 88.8939 99.0885 87.4714 100.156 86.5469C101.048 85.7786 102.135 85.3945 103.418 85.3945C104.844 85.3945 106.009 85.8633 106.914 86.8008C107.819 87.7318 108.271 89.0208 108.271 90.668C108.271 92.0026 108.07 93.054 107.666 93.8223C107.269 94.584 106.686 95.1764 105.918 95.5996C105.156 96.0228 104.323 96.2344 103.418 96.2344C101.966 96.2344 100.791 95.7689 99.8926 94.8379C99.0007 93.9069 98.5547 92.5658 98.5547 90.8145ZM100.361 90.8145C100.361 92.1426 100.651 93.1387 101.23 93.8027C101.81 94.4603 102.539 94.7891 103.418 94.7891C104.29 94.7891 105.016 94.457 105.596 93.793C106.175 93.1289 106.465 92.1165 106.465 90.7559C106.465 89.4733 106.172 88.5033 105.586 87.8457C105.007 87.1816 104.284 86.8496 103.418 86.8496C102.539 86.8496 101.81 87.1784 101.23 87.8359C100.651 88.4935 100.361 89.4863 100.361 90.8145ZM112.256 96L109.082 85.6289H110.898L112.549 91.6152L113.164 93.8418C113.19 93.7311 113.369 93.0182 113.701 91.7031L115.352 85.6289H117.158L118.711 91.6445L119.229 93.627L119.824 91.625L121.602 85.6289H123.311L120.068 96H118.242L116.592 89.7891L116.191 88.0215L114.092 96H112.256ZM134.199 94.4277L134.453 95.9805C133.958 96.0846 133.516 96.1367 133.125 96.1367C132.487 96.1367 131.992 96.0358 131.641 95.834C131.289 95.6322 131.042 95.3685 130.898 95.043C130.755 94.7109 130.684 94.0176 130.684 92.9629V86.9961H129.395V85.6289H130.684V83.0605L132.432 82.0059V85.6289H134.199V86.9961H132.432V93.0605C132.432 93.5618 132.461 93.8841 132.52 94.0273C132.585 94.1706 132.686 94.2845 132.822 94.3691C132.965 94.4538 133.167 94.4961 133.428 94.4961C133.623 94.4961 133.88 94.4733 134.199 94.4277ZM135.273 90.8145C135.273 88.8939 135.807 87.4714 136.875 86.5469C137.767 85.7786 138.854 85.3945 140.137 85.3945C141.562 85.3945 142.728 85.8633 143.633 86.8008C144.538 87.7318 144.99 89.0208 144.99 90.668C144.99 92.0026 144.788 93.054 144.385 93.8223C143.988 94.584 143.405 95.1764 142.637 95.5996C141.875 96.0228 141.042 96.2344 140.137 96.2344C138.685 96.2344 137.51 95.7689 136.611 94.8379C135.719 93.9069 135.273 92.5658 135.273 90.8145ZM137.08 90.8145C137.08 92.1426 137.37 93.1387 137.949 93.8027C138.529 94.4603 139.258 94.7891 140.137 94.7891C141.009 94.7891 141.735 94.457 142.314 93.793C142.894 93.1289 143.184 92.1165 143.184 90.7559C143.184 89.4733 142.891 88.5033 142.305 87.8457C141.725 87.1816 141.003 86.8496 140.137 86.8496C139.258 86.8496 138.529 87.1784 137.949 87.8359C137.37 88.4935 137.08 89.4863 137.08 90.8145ZM153.047 96V86.9961H151.494V85.6289H153.047V84.5254C153.047 83.8288 153.109 83.3112 153.232 82.9727C153.402 82.5169 153.698 82.1491 154.121 81.8691C154.551 81.5827 155.15 81.4395 155.918 81.4395C156.413 81.4395 156.96 81.498 157.559 81.6152L157.295 83.1484C156.93 83.0833 156.585 83.0508 156.26 83.0508C155.726 83.0508 155.348 83.1647 155.127 83.3926C154.906 83.6204 154.795 84.0469 154.795 84.6719V85.6289H156.816V86.9961H154.795V96H153.047ZM158.203 83.7051V81.6836H159.961V83.7051H158.203ZM158.203 96V85.6289H159.961V96H158.203ZM162.607 96V81.6836H164.365V96H162.607ZM167.061 96V81.6836H168.818V96H167.061ZM183.887 94.7207C183.236 95.2741 182.607 95.6647 182.002 95.8926C181.403 96.1204 180.758 96.2344 180.068 96.2344C178.929 96.2344 178.053 95.9577 177.441 95.4043C176.829 94.8444 176.523 94.1315 176.523 93.2656C176.523 92.7578 176.637 92.2956 176.865 91.8789C177.1 91.4557 177.402 91.1172 177.773 90.8633C178.151 90.6094 178.574 90.4173 179.043 90.2871C179.388 90.196 179.909 90.1081 180.605 90.0234C182.025 89.8542 183.07 89.6523 183.74 89.418C183.747 89.1771 183.75 89.0241 183.75 88.959C183.75 88.2428 183.584 87.7383 183.252 87.4453C182.803 87.0482 182.135 86.8496 181.25 86.8496C180.423 86.8496 179.811 86.9961 179.414 87.2891C179.023 87.5755 178.734 88.0866 178.545 88.8223L176.826 88.5879C176.982 87.8522 177.24 87.2598 177.598 86.8105C177.956 86.3548 178.473 86.0065 179.15 85.7656C179.827 85.5182 180.612 85.3945 181.504 85.3945C182.389 85.3945 183.109 85.4987 183.662 85.707C184.215 85.9154 184.622 86.179 184.883 86.498C185.143 86.8105 185.326 87.2077 185.43 87.6895C185.488 87.9889 185.518 88.5293 185.518 89.3105V91.6543C185.518 93.2884 185.553 94.3236 185.625 94.7598C185.703 95.1895 185.853 95.6029 186.074 96H184.238C184.056 95.6354 183.939 95.209 183.887 94.7207ZM183.74 90.7949C183.102 91.0553 182.145 91.2767 180.869 91.459C180.146 91.5632 179.635 91.6803 179.336 91.8105C179.036 91.9408 178.805 92.1328 178.643 92.3867C178.48 92.6341 178.398 92.9108 178.398 93.2168C178.398 93.6855 178.574 94.0762 178.926 94.3887C179.284 94.7012 179.805 94.8574 180.488 94.8574C181.165 94.8574 181.768 94.7109 182.295 94.418C182.822 94.1185 183.21 93.7116 183.457 93.1973C183.646 92.8001 183.74 92.2142 183.74 91.4395V90.7949ZM188.252 96V85.6289H189.834V87.1035C190.596 85.9642 191.696 85.3945 193.135 85.3945C193.76 85.3945 194.333 85.5085 194.854 85.7363C195.381 85.9577 195.775 86.2507 196.035 86.6152C196.296 86.9798 196.478 87.4128 196.582 87.9141C196.647 88.2396 196.68 88.8092 196.68 89.623V96H194.922V89.6914C194.922 88.9753 194.854 88.4414 194.717 88.0898C194.58 87.7318 194.336 87.4486 193.984 87.2402C193.639 87.0254 193.232 86.918 192.764 86.918C192.015 86.918 191.367 87.1556 190.82 87.6309C190.28 88.1061 190.01 89.0078 190.01 90.3359V96H188.252ZM206.113 96V94.6914C205.456 95.7201 204.489 96.2344 203.213 96.2344C202.386 96.2344 201.624 96.0065 200.928 95.5508C200.238 95.0951 199.701 94.4603 199.316 93.6465C198.939 92.8262 198.75 91.8854 198.75 90.8242C198.75 89.7891 198.923 88.8516 199.268 88.0117C199.613 87.1654 200.13 86.5176 200.82 86.0684C201.51 85.6191 202.282 85.3945 203.135 85.3945C203.76 85.3945 204.316 85.528 204.805 85.7949C205.293 86.0553 205.69 86.3971 205.996 86.8203V81.6836H207.744V96H206.113ZM200.557 90.8242C200.557 92.1523 200.837 93.1452 201.396 93.8027C201.956 94.4603 202.617 94.7891 203.379 94.7891C204.147 94.7891 204.798 94.4766 205.332 93.8516C205.872 93.2201 206.143 92.2598 206.143 90.9707C206.143 89.5514 205.869 88.5098 205.322 87.8457C204.775 87.1816 204.102 86.8496 203.301 86.8496C202.52 86.8496 201.865 87.1686 201.338 87.8066C200.817 88.4447 200.557 89.4505 200.557 90.8242ZM216.084 96V85.6289H217.656V87.084C217.982 86.5762 218.415 86.1693 218.955 85.8633C219.495 85.5508 220.111 85.3945 220.801 85.3945C221.569 85.3945 222.197 85.554 222.686 85.873C223.18 86.1921 223.529 86.638 223.73 87.2109C224.551 86 225.618 85.3945 226.934 85.3945C227.962 85.3945 228.753 85.681 229.307 86.2539C229.86 86.8203 230.137 87.696 230.137 88.8809V96H228.389V89.4668C228.389 88.7637 228.33 88.2591 228.213 87.9531C228.102 87.6406 227.897 87.39 227.598 87.2012C227.298 87.0124 226.947 86.918 226.543 86.918C225.814 86.918 225.208 87.1621 224.727 87.6504C224.245 88.1322 224.004 88.9069 224.004 89.9746V96H222.246V89.2617C222.246 88.4805 222.103 87.8945 221.816 87.5039C221.53 87.1133 221.061 86.918 220.41 86.918C219.915 86.918 219.456 87.0482 219.033 87.3086C218.617 87.569 218.314 87.9499 218.125 88.4512C217.936 88.9525 217.842 89.6751 217.842 90.6191V96H216.084ZM239.512 94.7207C238.861 95.2741 238.232 95.6647 237.627 95.8926C237.028 96.1204 236.383 96.2344 235.693 96.2344C234.554 96.2344 233.678 95.9577 233.066 95.4043C232.454 94.8444 232.148 94.1315 232.148 93.2656C232.148 92.7578 232.262 92.2956 232.49 91.8789C232.725 91.4557 233.027 91.1172 233.398 90.8633C233.776 90.6094 234.199 90.4173 234.668 90.2871C235.013 90.196 235.534 90.1081 236.23 90.0234C237.65 89.8542 238.695 89.6523 239.365 89.418C239.372 89.1771 239.375 89.0241 239.375 88.959C239.375 88.2428 239.209 87.7383 238.877 87.4453C238.428 87.0482 237.76 86.8496 236.875 86.8496C236.048 86.8496 235.436 86.9961 235.039 87.2891C234.648 87.5755 234.359 88.0866 234.17 88.8223L232.451 88.5879C232.607 87.8522 232.865 87.2598 233.223 86.8105C233.581 86.3548 234.098 86.0065 234.775 85.7656C235.452 85.5182 236.237 85.3945 237.129 85.3945C238.014 85.3945 238.734 85.4987 239.287 85.707C239.84 85.9154 240.247 86.179 240.508 86.498C240.768 86.8105 240.951 87.2077 241.055 87.6895C241.113 87.9889 241.143 88.5293 241.143 89.3105V91.6543C241.143 93.2884 241.178 94.3236 241.25 94.7598C241.328 95.1895 241.478 95.6029 241.699 96H239.863C239.681 95.6354 239.564 95.209 239.512 94.7207ZM239.365 90.7949C238.727 91.0553 237.77 91.2767 236.494 91.459C235.771 91.5632 235.26 91.6803 234.961 91.8105C234.661 91.9408 234.43 92.1328 234.268 92.3867C234.105 92.6341 234.023 92.9108 234.023 93.2168C234.023 93.6855 234.199 94.0762 234.551 94.3887C234.909 94.7012 235.43 94.8574 236.113 94.8574C236.79 94.8574 237.393 94.7109 237.92 94.418C238.447 94.1185 238.835 93.7116 239.082 93.1973C239.271 92.8001 239.365 92.2142 239.365 91.4395V90.7949ZM243.877 96V85.6289H245.459V87.1035C246.221 85.9642 247.321 85.3945 248.76 85.3945C249.385 85.3945 249.958 85.5085 250.479 85.7363C251.006 85.9577 251.4 86.2507 251.66 86.6152C251.921 86.9798 252.103 87.4128 252.207 87.9141C252.272 88.2396 252.305 88.8092 252.305 89.623V96H250.547V89.6914C250.547 88.9753 250.479 88.4414 250.342 88.0898C250.205 87.7318 249.961 87.4486 249.609 87.2402C249.264 87.0254 248.857 86.918 248.389 86.918C247.64 86.918 246.992 87.1556 246.445 87.6309C245.905 88.1061 245.635 89.0078 245.635 90.3359V96H243.877ZM261.777 94.7207C261.126 95.2741 260.498 95.6647 259.893 95.8926C259.294 96.1204 258.649 96.2344 257.959 96.2344C256.82 96.2344 255.944 95.9577 255.332 95.4043C254.72 94.8444 254.414 94.1315 254.414 93.2656C254.414 92.7578 254.528 92.2956 254.756 91.8789C254.99 91.4557 255.293 91.1172 255.664 90.8633C256.042 90.6094 256.465 90.4173 256.934 90.2871C257.279 90.196 257.799 90.1081 258.496 90.0234C259.915 89.8542 260.96 89.6523 261.631 89.418C261.637 89.1771 261.641 89.0241 261.641 88.959C261.641 88.2428 261.475 87.7383 261.143 87.4453C260.693 87.0482 260.026 86.8496 259.141 86.8496C258.314 86.8496 257.702 86.9961 257.305 87.2891C256.914 87.5755 256.624 88.0866 256.436 88.8223L254.717 88.5879C254.873 87.8522 255.13 87.2598 255.488 86.8105C255.846 86.3548 256.364 86.0065 257.041 85.7656C257.718 85.5182 258.503 85.3945 259.395 85.3945C260.28 85.3945 260.999 85.4987 261.553 85.707C262.106 85.9154 262.513 86.179 262.773 86.498C263.034 86.8105 263.216 87.2077 263.32 87.6895C263.379 87.9889 263.408 88.5293 263.408 89.3105V91.6543C263.408 93.2884 263.444 94.3236 263.516 94.7598C263.594 95.1895 263.743 95.6029 263.965 96H262.129C261.947 95.6354 261.829 95.209 261.777 94.7207ZM261.631 90.7949C260.993 91.0553 260.036 91.2767 258.76 91.459C258.037 91.5632 257.526 91.6803 257.227 91.8105C256.927 91.9408 256.696 92.1328 256.533 92.3867C256.37 92.6341 256.289 92.9108 256.289 93.2168C256.289 93.6855 256.465 94.0762 256.816 94.3887C257.174 94.7012 257.695 94.8574 258.379 94.8574C259.056 94.8574 259.658 94.7109 260.186 94.418C260.713 94.1185 261.1 93.7116 261.348 93.1973C261.536 92.8001 261.631 92.2142 261.631 91.4395V90.7949ZM265.82 96.8594L267.529 97.1133C267.601 97.6406 267.799 98.0247 268.125 98.2656C268.561 98.5911 269.157 98.7539 269.912 98.7539C270.726 98.7539 271.354 98.5911 271.797 98.2656C272.24 97.9401 272.539 97.4844 272.695 96.8984C272.786 96.5404 272.829 95.7884 272.822 94.6426C272.054 95.5475 271.097 96 269.951 96C268.525 96 267.422 95.4857 266.641 94.457C265.859 93.4284 265.469 92.1947 265.469 90.7559C265.469 89.7663 265.648 88.8548 266.006 88.0215C266.364 87.1816 266.882 86.5339 267.559 86.0781C268.242 85.6224 269.043 85.3945 269.961 85.3945C271.185 85.3945 272.194 85.8893 272.988 86.8789V85.6289H274.609V94.5938C274.609 96.2083 274.443 97.3509 274.111 98.0215C273.786 98.6986 273.265 99.2324 272.549 99.623C271.839 100.014 270.964 100.209 269.922 100.209C268.685 100.209 267.686 99.929 266.924 99.3691C266.162 98.8158 265.794 97.9792 265.82 96.8594ZM267.275 90.6289C267.275 91.9896 267.546 92.9824 268.086 93.6074C268.626 94.2324 269.303 94.5449 270.117 94.5449C270.924 94.5449 271.602 94.2357 272.148 93.6172C272.695 92.9922 272.969 92.0156 272.969 90.6875C272.969 89.418 272.686 88.4609 272.119 87.8164C271.559 87.1719 270.882 86.8496 270.088 86.8496C269.307 86.8496 268.643 87.1686 268.096 87.8066C267.549 88.4382 267.275 89.3789 267.275 90.6289ZM284.375 92.6602L286.191 92.8848C285.905 93.946 285.374 94.7695 284.6 95.3555C283.825 95.9414 282.835 96.2344 281.631 96.2344C280.114 96.2344 278.91 95.7689 278.018 94.8379C277.132 93.9004 276.689 92.5885 276.689 90.9023C276.689 89.1576 277.139 87.8034 278.037 86.8398C278.936 85.8763 280.101 85.3945 281.533 85.3945C282.92 85.3945 284.053 85.8665 284.932 86.8105C285.811 87.7546 286.25 89.0827 286.25 90.7949C286.25 90.8991 286.247 91.0553 286.24 91.2637H278.506C278.571 92.403 278.893 93.2754 279.473 93.8809C280.052 94.4863 280.775 94.7891 281.641 94.7891C282.285 94.7891 282.835 94.6198 283.291 94.2812C283.747 93.9427 284.108 93.4023 284.375 92.6602ZM278.604 89.8184H284.395C284.316 88.946 284.095 88.2917 283.73 87.8555C283.171 87.1784 282.445 86.8398 281.553 86.8398C280.745 86.8398 280.065 87.11 279.512 87.6504C278.965 88.1908 278.662 88.9134 278.604 89.8184ZM30.8301 108.939C30.8301 107.247 31.0026 105.886 31.3477 104.857C31.6992 103.822 32.2168 103.025 32.9004 102.465C33.5905 101.905 34.4564 101.625 35.498 101.625C36.2663 101.625 36.9401 101.781 37.5195 102.094C38.099 102.4 38.5775 102.846 38.9551 103.432C39.3327 104.011 39.6289 104.721 39.8438 105.561C40.0586 106.394 40.166 107.52 40.166 108.939C40.166 110.619 39.9935 111.977 39.6484 113.012C39.3034 114.04 38.7858 114.838 38.0957 115.404C37.4121 115.964 36.5462 116.244 35.498 116.244C34.1178 116.244 33.0339 115.749 32.2461 114.76C31.3021 113.568 30.8301 111.628 30.8301 108.939ZM32.6367 108.939C32.6367 111.29 32.9102 112.855 33.457 113.637C34.0104 114.411 34.6908 114.799 35.498 114.799C36.3053 114.799 36.9824 114.408 37.5293 113.627C38.0827 112.846 38.3594 111.283 38.3594 108.939C38.3594 106.583 38.0827 105.017 37.5293 104.242C36.9824 103.467 36.2988 103.08 35.4785 103.08C34.6712 103.08 34.0267 103.422 33.5449 104.105C32.9395 104.978 32.6367 106.589 32.6367 108.939ZM41.2793 116L45.0684 110.609L41.5625 105.629H43.7598L45.3516 108.061C45.651 108.523 45.8919 108.91 46.0742 109.223C46.3607 108.793 46.6243 108.412 46.8652 108.08L48.6133 105.629H50.7129L47.1289 110.512L50.9863 116H48.8281L46.6992 112.777L46.1328 111.908L43.4082 116H41.2793ZM58.1641 116V101.684H60.0586V114.311H67.1094V116H58.1641ZM69.1602 103.705V101.684H70.918V103.705H69.1602ZM69.1602 116V105.629H70.918V116H69.1602ZM73.6035 116V105.629H75.1758V107.084C75.5013 106.576 75.9342 106.169 76.4746 105.863C77.015 105.551 77.6302 105.395 78.3203 105.395C79.0885 105.395 79.7168 105.554 80.2051 105.873C80.6999 106.192 81.0482 106.638 81.25 107.211C82.0703 106 83.138 105.395 84.4531 105.395C85.4818 105.395 86.2728 105.681 86.8262 106.254C87.3796 106.82 87.6562 107.696 87.6562 108.881V116H85.9082V109.467C85.9082 108.764 85.8496 108.259 85.7324 107.953C85.6217 107.641 85.4167 107.39 85.1172 107.201C84.8177 107.012 84.4661 106.918 84.0625 106.918C83.3333 106.918 82.7279 107.162 82.2461 107.65C81.7643 108.132 81.5234 108.907 81.5234 109.975V116H79.7656V109.262C79.7656 108.48 79.6224 107.895 79.3359 107.504C79.0495 107.113 78.5807 106.918 77.9297 106.918C77.4349 106.918 76.9759 107.048 76.5527 107.309C76.1361 107.569 75.8333 107.95 75.6445 108.451C75.4557 108.952 75.3613 109.675 75.3613 110.619V116H73.6035ZM90.2734 103.705V101.684H92.0312V103.705H90.2734ZM90.2734 116V105.629H92.0312V116H90.2734ZM98.5547 114.428L98.8086 115.98C98.3138 116.085 97.8711 116.137 97.4805 116.137C96.8424 116.137 96.3477 116.036 95.9961 115.834C95.6445 115.632 95.3971 115.368 95.2539 115.043C95.1107 114.711 95.0391 114.018 95.0391 112.963V106.996H93.75V105.629H95.0391V103.061L96.7871 102.006V105.629H98.5547V106.996H96.7871V113.061C96.7871 113.562 96.8164 113.884 96.875 114.027C96.9401 114.171 97.041 114.285 97.1777 114.369C97.321 114.454 97.5228 114.496 97.7832 114.496C97.9785 114.496 98.2357 114.473 98.5547 114.428ZM105.498 109.027C105.498 106.651 106.136 104.792 107.412 103.451C108.688 102.104 110.335 101.43 112.354 101.43C113.675 101.43 114.867 101.745 115.928 102.377C116.989 103.008 117.796 103.891 118.35 105.023C118.91 106.15 119.189 107.429 119.189 108.861C119.189 110.313 118.896 111.612 118.311 112.758C117.725 113.904 116.895 114.773 115.82 115.365C114.746 115.951 113.587 116.244 112.344 116.244C110.996 116.244 109.792 115.919 108.73 115.268C107.669 114.617 106.865 113.728 106.318 112.602C105.771 111.475 105.498 110.284 105.498 109.027ZM107.451 109.057C107.451 110.782 107.913 112.143 108.838 113.139C109.769 114.128 110.934 114.623 112.334 114.623C113.76 114.623 114.932 114.122 115.85 113.119C116.774 112.117 117.236 110.694 117.236 108.852C117.236 107.686 117.038 106.671 116.641 105.805C116.25 104.932 115.674 104.258 114.912 103.783C114.157 103.301 113.307 103.061 112.363 103.061C111.022 103.061 109.867 103.523 108.896 104.447C107.933 105.365 107.451 106.902 107.451 109.057ZM121.396 116V105.629H122.979V107.201C123.382 106.465 123.753 105.98 124.092 105.746C124.437 105.512 124.814 105.395 125.225 105.395C125.817 105.395 126.419 105.583 127.031 105.961L126.426 107.592C125.996 107.338 125.566 107.211 125.137 107.211C124.753 107.211 124.408 107.328 124.102 107.562C123.796 107.79 123.577 108.109 123.447 108.52C123.252 109.145 123.154 109.828 123.154 110.57V116H121.396ZM134.805 116V114.691C134.147 115.72 133.18 116.234 131.904 116.234C131.077 116.234 130.316 116.007 129.619 115.551C128.929 115.095 128.392 114.46 128.008 113.646C127.63 112.826 127.441 111.885 127.441 110.824C127.441 109.789 127.614 108.852 127.959 108.012C128.304 107.165 128.822 106.518 129.512 106.068C130.202 105.619 130.973 105.395 131.826 105.395C132.451 105.395 133.008 105.528 133.496 105.795C133.984 106.055 134.382 106.397 134.688 106.82V101.684H136.436V116H134.805ZM129.248 110.824C129.248 112.152 129.528 113.145 130.088 113.803C130.648 114.46 131.309 114.789 132.07 114.789C132.839 114.789 133.49 114.477 134.023 113.852C134.564 113.22 134.834 112.26 134.834 110.971C134.834 109.551 134.561 108.51 134.014 107.846C133.467 107.182 132.793 106.85 131.992 106.85C131.211 106.85 130.557 107.169 130.029 107.807C129.508 108.445 129.248 109.451 129.248 110.824ZM146.309 112.66L148.125 112.885C147.839 113.946 147.308 114.77 146.533 115.355C145.758 115.941 144.769 116.234 143.564 116.234C142.048 116.234 140.843 115.769 139.951 114.838C139.066 113.9 138.623 112.589 138.623 110.902C138.623 109.158 139.072 107.803 139.971 106.84C140.869 105.876 142.035 105.395 143.467 105.395C144.854 105.395 145.986 105.867 146.865 106.811C147.744 107.755 148.184 109.083 148.184 110.795C148.184 110.899 148.18 111.055 148.174 111.264H140.439C140.505 112.403 140.827 113.275 141.406 113.881C141.986 114.486 142.708 114.789 143.574 114.789C144.219 114.789 144.769 114.62 145.225 114.281C145.68 113.943 146.042 113.402 146.309 112.66ZM140.537 109.818H146.328C146.25 108.946 146.029 108.292 145.664 107.855C145.104 107.178 144.378 106.84 143.486 106.84C142.679 106.84 141.999 107.11 141.445 107.65C140.898 108.191 140.596 108.913 140.537 109.818ZM150.322 116V105.629H151.904V107.201C152.308 106.465 152.679 105.98 153.018 105.746C153.363 105.512 153.74 105.395 154.15 105.395C154.743 105.395 155.345 105.583 155.957 105.961L155.352 107.592C154.922 107.338 154.492 107.211 154.062 107.211C153.678 107.211 153.333 107.328 153.027 107.562C152.721 107.79 152.503 108.109 152.373 108.52C152.178 109.145 152.08 109.828 152.08 110.57V116H150.322ZM156.299 112.904L158.037 112.631C158.135 113.327 158.405 113.861 158.848 114.232C159.297 114.604 159.922 114.789 160.723 114.789C161.53 114.789 162.129 114.626 162.52 114.301C162.91 113.969 163.105 113.581 163.105 113.139C163.105 112.742 162.933 112.429 162.588 112.201C162.347 112.045 161.748 111.846 160.791 111.605C159.502 111.28 158.607 111 158.105 110.766C157.611 110.525 157.233 110.196 156.973 109.779C156.719 109.356 156.592 108.891 156.592 108.383C156.592 107.921 156.696 107.494 156.904 107.104C157.119 106.706 157.409 106.378 157.773 106.117C158.047 105.915 158.418 105.746 158.887 105.609C159.362 105.466 159.87 105.395 160.41 105.395C161.224 105.395 161.937 105.512 162.549 105.746C163.167 105.98 163.623 106.299 163.916 106.703C164.209 107.1 164.411 107.634 164.521 108.305L162.803 108.539C162.725 108.005 162.497 107.589 162.119 107.289C161.748 106.99 161.221 106.84 160.537 106.84C159.73 106.84 159.154 106.973 158.809 107.24C158.464 107.507 158.291 107.82 158.291 108.178C158.291 108.406 158.363 108.611 158.506 108.793C158.649 108.982 158.874 109.138 159.18 109.262C159.355 109.327 159.873 109.477 160.732 109.711C161.976 110.043 162.842 110.316 163.33 110.531C163.825 110.74 164.212 111.046 164.492 111.449C164.772 111.853 164.912 112.354 164.912 112.953C164.912 113.539 164.74 114.092 164.395 114.613C164.056 115.128 163.564 115.528 162.92 115.814C162.275 116.094 161.546 116.234 160.732 116.234C159.385 116.234 158.356 115.954 157.646 115.395C156.943 114.835 156.494 114.005 156.299 112.904Z" fill="#2C2C2C"/>
<path d="M349.707 20.2929C349.317 19.9024 348.683 19.9024 348.293 20.2929C347.902 20.6834 347.902 21.3166 348.293 21.7071L352.586 26H339C338.448 26 338 26.4477 338 27C338 27.5523 338.448 28 339 28H352.586L348.293 32.2929C347.902 32.6834 347.902 33.3166 348.293 33.7071C348.683 34.0976 349.317 34.0976 349.707 33.7071L355.707 27.7071C356.098 27.3166 356.098 26.6834 355.707 26.2929L349.707 20.2929Z" fill="#A0A0AB"/>
</g>
</g>
<defs>
<filter id="filter0_d_3_1587" x="0" y="0" width="397" height="144" filterUnits="userSpaceOnUse" color-interpolation-filters="sRGB">
<feFlood flood-opacity="0" result="BackgroundImageFix"/>
<feColorMatrix in="SourceAlpha" type="matrix" values="0 0 0 0 0 0 0 0 0 0 0 0 0 0 0 0 0 0 127 0" result="hardAlpha"/>
<feOffset dy="4"/>
<feGaussianBlur stdDeviation="2"/>
<feColorMatrix type="matrix" values="0 0 0 0 0 0 0 0 0 0 0 0 0 0 0 0 0 0 0.1 0"/>
<feBlend mode="normal" in2="BackgroundImageFix" result="effect1_dropShadow_3_1587"/>
<feBlend mode="normal" in="SourceGraphic" in2="effect1_dropShadow_3_1587" result="shape"/>
</filter>
<filter id="filter1_d_3_1587" x="0" y="0" width="397" height="144" filterUnits="userSpaceOnUse" color-interpolation-filters="sRGB">
<feFlood flood-opacity="0" result="BackgroundImageFix"/>
<feColorMatrix in="SourceAlpha" type="matrix" values="0 0 0 0 0 0 0 0 0 0 0 0 0 0 0 0 0 0 127 0" result="hardAlpha"/>
<feOffset dy="4"/>
<feGaussianBlur stdDeviation="2"/>
<feComposite in2="hardAlpha" operator="out"/>
<feColorMatrix type="matrix" values="0 0 0 0 0 0 0 0 0 0 0 0 0 0 0 0 0 0 0.1 0"/>
<feBlend mode="normal" in2="BackgroundImageFix" result="effect1_dropShadow_3_1587"/>
<feBlend mode="normal" in="SourceGraphic" in2="effect1_dropShadow_3_1587" result="shape"/>
</filter>
</defs>
</svg>
