<svg width="720" height="441" viewBox="0 0 720 441" fill="none" xmlns="http://www.w3.org/2000/svg">
<path fill-rule="evenodd" clip-rule="evenodd" d="M280.961 28.7551C253.404 9.58503 220.456 0 182.116 0C143.775 0 110.827 9.58503 83.27 28.7551C55.713 47.5258 34.9454 73.4852 20.9673 106.633C6.98909 139.782 0 177.722 0 220.456C0 263.189 6.98909 301.13 20.9673 334.278C34.9454 367.426 55.713 393.585 83.27 412.755C110.827 431.526 143.775 440.911 182.116 440.911C220.456 440.911 253.404 431.526 280.961 412.755C308.518 393.585 329.286 367.426 343.264 334.278C357.242 301.13 364.231 263.189 364.231 220.456C364.231 177.722 357.242 139.782 343.264 106.633C329.286 73.4852 308.518 47.5258 280.961 28.7551ZM234.009 102.583C220.621 88.5097 203.323 81.4728 182.116 81.4728C153.76 81.4728 132.194 94.0531 117.417 119.214C103.039 144.375 95.8503 178.122 95.8503 220.456C95.8503 247.032 98.6834 270.224 104.349 290.032L234.009 102.583ZM129.841 338.28C143.459 352.386 160.884 359.439 182.116 359.439C210.471 359.439 231.838 346.858 246.216 321.698C260.992 296.537 268.381 262.79 268.381 220.456C268.381 193.799 265.451 170.547 259.592 150.699L129.841 338.28Z" fill="#26272B"/>
<path d="M477.978 265.985L365.354 431.326H473.185L525.903 337.872C529.897 331.482 532.293 323.095 533.092 312.712C533.491 308.718 534.29 305.723 535.488 303.726C536.686 301.329 539.082 300.131 542.677 300.131C548.268 300.131 551.463 303.726 552.262 310.915V312.712C553.061 323.095 555.457 331.482 559.451 337.872L612.168 431.326H720L607.376 265.985L710.415 115.02H602.583L559.451 193.498C554.658 201.885 552.262 210.272 552.262 218.659C552.262 222.253 551.463 225.248 549.866 227.645C548.667 230.041 546.271 231.239 542.677 231.239C539.082 231.239 536.487 230.041 534.889 227.645C533.691 225.248 533.092 222.253 533.092 218.659C533.092 210.272 530.696 201.885 525.903 193.498L482.77 115.02H374.939L477.978 265.985Z" fill="#26272B"/>
</svg>
