<svg width="2158" height="2180" viewBox="0 0 2158 2180" fill="none" xmlns="http://www.w3.org/2000/svg">
<g clip-path="url(#clip0_10_320)">
<path d="M1624.53 1922.18L1674.02 1996.3C1792.81 1916.73 1895.09 1814.41 1974.62 1695.53L1900.54 1646.01C1827.51 1755.16 1733.61 1849.11 1624.53 1922.18Z" fill="#F4F4F5"/>
<path d="M2069.06 1089.89C2069.06 1156.72 2062.49 1222.03 2050 1285.19L2137.38 1302.58C2150.98 1233.79 2158.13 1162.69 2158.13 1089.89C2158.13 1017.1 2150.98 946.003 2137.38 877.204L2050 894.601C2062.49 957.779 2069.06 1023.07 2069.06 1089.89Z" fill="#F4F4F5"/>
<path d="M236.918 1646.01L162.843 1695.53C242.374 1814.39 344.63 1916.73 463.439 1996.3L512.93 1922.18C403.849 1849.11 309.949 1755.16 236.918 1646.01Z" fill="#F4F4F5"/>
<path d="M1068.72 89.036C1135.51 89.036 1200.79 95.6093 1263.9 108.105L1281.29 20.6787C1212.53 7.06765 1141.47 -0.0863056 1068.72 -0.086312C995.97 -0.0863184 924.913 7.06762 856.154 20.6787L873.541 108.105C936.659 95.6093 1001.94 89.036 1068.72 89.036Z" fill="#F4F4F5"/>
<path d="M236.964 533.815L162.889 484.295C84.6353 601.266 28.3883 734.218 0.113858 877.227L87.4906 894.624C113.444 763.298 165.094 641.217 236.941 533.815L236.964 533.815Z" fill="#F4F4F5"/>
<path d="M1624.54 257.593L1674.03 183.476C1557.12 105.177 1424.25 48.898 1281.32 20.6074L1263.93 108.034C1395.18 134.002 1517.2 185.682 1624.54 257.57L1624.54 257.593Z" fill="#F4F4F5"/>
<path d="M236.983 1646.02C165.113 1538.62 113.485 1416.54 87.5324 1285.21L0.15567 1302.61C28.43 1445.64 84.6538 1578.59 162.931 1695.54L237.006 1646.02L236.983 1646.02Z" fill="#F4F4F5"/>
<path d="M1826.45 1596.48L1900.53 1646C1972.4 1538.59 2024.03 1416.51 2049.98 1285.19L1962.6 1267.79C1938.95 1387.43 1891.92 1498.64 1826.45 1596.48Z" fill="#CA2240"/>
<path d="M1962.6 911.986L2049.98 894.589C2024.03 763.263 1972.38 641.182 1900.53 533.78L1826.45 583.3C1891.92 681.132 1938.95 792.344 1962.6 911.986Z" fill="url(#paint0_linear_10_320)"/>
<path d="M1068.76 2001.68C1007.92 2001.68 948.47 1995.68 890.969 1984.3L873.582 2071.73C936.701 2084.22 1001.98 2090.8 1068.76 2090.8C1135.55 2090.8 1200.83 2084.22 1263.95 2071.73L1246.56 1984.3C1189.06 1995.68 1129.61 2001.68 1068.76 2001.68Z" fill="#F4F4F5"/>
<path d="M157.539 1089.93C157.539 1029.05 163.528 969.567 174.903 912.033L87.5261 894.636C75.0371 957.791 68.4675 1023.11 68.4675 1089.93C68.4675 1156.75 75.0371 1222.07 87.5261 1285.22L174.903 1267.83C163.528 1210.29 157.539 1150.81 157.539 1089.93Z" fill="#CA2240"/>
<path d="M890.929 195.534L873.542 108.108C742.292 134.076 620.28 185.756 512.939 257.644L562.431 331.761C660.208 266.261 771.355 219.203 890.929 195.534Z" fill="url(#paint1_linear_10_320)"/>
<path d="M1875.25 929.38L1962.63 911.983C1938.97 792.34 1891.94 681.129 1826.48 583.297L1752.4 632.817C1811.46 721.08 1853.89 821.42 1875.25 929.38Z" fill="#3A65EB"/>
<path d="M1752.38 632.824L1826.46 583.304C1759.93 483.892 1674.38 398.3 1575.03 331.731L1525.54 405.849C1615.19 465.914 1692.37 543.121 1752.38 632.824Z" fill="#3A65EB"/>
<path d="M1229.15 1896.87L1246.54 1984.29C1366.11 1960.63 1477.26 1913.57 1575.04 1848.07L1525.55 1773.95C1437.33 1833.04 1337.05 1875.5 1229.15 1896.87Z" fill="#CA2240"/>
<path d="M1068.73 1912.53C1013.83 1912.53 960.204 1907.15 908.298 1896.86L890.911 1984.28C948.411 1995.66 1007.86 2001.66 1068.71 2001.66C1129.55 2001.66 1189 1995.66 1246.5 1984.28L1229.11 1896.86C1177.23 1907.12 1123.58 1912.53 1068.68 1912.53L1068.73 1912.53Z" fill="#F4F4F5"/>
<path d="M1068.72 267.292C1123.62 267.292 1177.25 272.681 1229.15 282.971L1246.54 195.544C1189.04 184.163 1129.59 178.17 1068.75 178.17C1007.9 178.17 948.453 184.163 890.952 195.544L908.34 282.971C960.222 272.704 1013.87 267.292 1068.77 267.292L1068.72 267.292Z" fill="url(#paint2_linear_10_320)"/>
<path d="M262.279 1250.46L174.902 1267.85C198.557 1387.5 245.588 1498.71 311.051 1596.54L385.126 1547.02C326.07 1458.76 283.635 1358.42 262.279 1250.46Z" fill="#F4F4F5"/>
<path d="M611.951 405.849L562.459 331.731C463.104 398.3 377.561 483.892 311.031 583.304L385.106 632.824C445.137 543.121 522.299 465.891 611.951 405.849Z" fill="#2A2A2A"/>
<path d="M385.076 632.817L311.001 583.297C245.538 681.129 198.507 792.34 174.852 911.983L262.229 929.38C283.562 821.444 325.997 721.103 385.076 632.817Z" fill="#AF974B"/>
<path d="M1678.32 682.371L1752.39 632.851C1692.36 543.148 1615.2 465.918 1525.55 405.876L1476.05 479.994C1555.98 533.532 1624.81 602.4 1678.32 682.371Z" fill="url(#paint3_linear_10_320)"/>
<path d="M1801.83 1089.91C1801.83 1138.9 1796.98 1186.75 1787.83 1233.04L1875.23 1250.44C1885.49 1198.52 1890.9 1144.85 1890.9 1089.91C1890.9 1034.98 1885.51 981.328 1875.23 929.393L1787.83 946.79C1796.98 993.081 1801.83 1040.93 1801.83 1089.91Z" fill="#F4F4F5"/>
<path d="M1211.79 1809.43L1229.18 1896.88C1337.05 1875.53 1437.33 1833.07 1525.57 1773.96L1476.08 1699.84C1397.41 1752.54 1307.99 1790.38 1211.81 1809.43L1211.79 1809.43Z" fill="#2A2A2A"/>
<path d="M1476.05 1699.83L1525.55 1773.95C1615.2 1713.88 1692.38 1636.67 1752.39 1546.97L1678.32 1497.45C1624.81 1577.42 1555.98 1646.29 1476.05 1699.83Z" fill="url(#paint4_linear_10_320)"/>
<path d="M1476.08 479.979L1525.57 405.862C1437.36 346.772 1337.07 304.313 1229.18 282.944L1211.79 370.394C1307.99 389.44 1397.41 427.277 1476.05 479.979L1476.08 479.979Z" fill="#AF974B"/>
<path d="M661.44 1699.84L611.948 1773.96C700.16 1833.05 800.444 1875.51 908.342 1896.88L925.729 1809.43C829.531 1790.38 740.111 1752.54 661.463 1699.84L661.44 1699.84Z" fill="url(#paint5_linear_10_320)"/>
<path d="M459.2 1497.45L385.124 1546.97C445.155 1636.67 522.318 1713.9 611.97 1773.95L661.461 1699.83C581.536 1646.29 512.708 1577.42 459.2 1497.45Z" fill="#AF974B"/>
<path d="M925.74 370.424L908.353 282.974C800.478 304.32 700.195 346.779 611.959 405.892L661.451 480.009C740.122 427.307 829.542 389.47 925.717 370.424L925.74 370.424Z" fill="#CA2240"/>
<path d="M661.45 479.994L611.959 405.876C522.307 465.941 445.121 543.148 385.113 632.851L459.189 682.371C512.696 602.4 581.525 533.532 661.45 479.994Z" fill="#F4F4F5"/>
<path d="M335.674 1089.94C335.674 1040.96 340.525 993.111 349.672 946.819L262.272 929.422C252.011 981.335 246.602 1035.01 246.602 1089.94C246.602 1144.88 251.988 1198.53 262.272 1250.47L349.671 1233.07C340.525 1186.78 335.674 1138.93 335.674 1089.94Z" fill="url(#paint6_linear_10_320)"/>
<path d="M1068.76 445.558C1111.77 445.558 1153.77 449.808 1194.41 457.868L1211.8 370.441C1165.54 361.29 1117.71 356.435 1068.76 356.435C1019.8 356.435 971.978 361.29 925.713 370.441L943.101 457.868C983.748 449.832 1025.74 445.558 1068.76 445.558Z" fill="#3A65EB"/>
<path d="M1604.24 1447.96L1678.32 1497.48C1730.99 1418.76 1768.8 1329.29 1787.84 1233.06L1700.46 1215.66C1683.75 1300.21 1650.53 1378.81 1604.26 1447.96L1604.24 1447.96Z" fill="#01A74D"/>
<path d="M1700.46 964.166L1787.84 946.769C1768.8 850.516 1730.99 761.045 1678.32 682.352L1604.24 731.872C1650.51 801.019 1683.72 879.619 1700.44 964.166L1700.46 964.166Z" fill="#F4F4F5"/>
<path d="M1426.57 1625.72L1476.06 1699.84C1555.99 1646.3 1624.82 1577.43 1678.33 1497.46L1604.25 1447.94C1557.24 1518.2 1496.77 1578.69 1426.55 1625.74L1426.57 1625.72Z" fill="url(#paint7_linear_10_320)"/>
<path d="M533.249 731.872L459.174 682.352C406.502 761.068 368.687 850.539 349.651 946.769L437.028 964.166C453.742 879.619 486.961 801.019 533.226 731.872L533.249 731.872Z" fill="url(#paint8_linear_10_320)"/>
<path d="M1068.73 1734.28C1025.71 1734.28 983.717 1730.03 943.07 1721.97L925.683 1809.4C971.948 1818.55 1019.77 1823.4 1068.73 1823.4C1117.68 1823.4 1165.5 1818.55 1211.77 1809.4L1194.38 1721.97C1153.74 1730.01 1111.74 1734.28 1068.73 1734.28Z" fill="#AF974B"/>
<path d="M760.421 628.169L710.929 554.051C640.708 601.086 580.259 661.593 533.228 731.854L607.303 781.374C647.811 720.822 699.903 668.7 760.421 628.169Z" fill="#3A65EB"/>
<path d="M1623.66 1089.92C1623.66 1126.99 1620 1163.23 1613.08 1198.25L1700.46 1215.65C1708.49 1174.98 1712.76 1132.96 1712.76 1089.92C1712.76 1046.88 1708.51 1004.87 1700.46 964.195L1613.08 981.592C1620 1016.64 1623.66 1052.85 1623.66 1089.92Z" fill="#CA2240"/>
<path d="M1530.2 781.375L1604.28 731.854C1557.27 661.593 1496.8 601.109 1426.58 554.051L1377.09 628.169C1437.6 668.7 1489.7 720.822 1530.2 781.375Z" fill="#AF974B"/>
<path d="M513.802 1089.89C513.802 1052.82 517.47 1016.59 524.388 981.561L437.011 964.164C428.979 1004.83 424.708 1046.85 424.708 1089.89C424.708 1132.93 428.956 1174.95 437.011 1215.62L524.388 1198.22C517.47 1163.17 513.802 1126.96 513.802 1089.89Z" fill="#F4F4F5"/>
<path d="M1177 1634.55L1194.39 1721.98C1278.89 1705.26 1357.44 1672.02 1426.55 1625.7L1377.06 1551.59C1317.51 1591.47 1249.82 1620.13 1177 1634.53L1177 1634.55Z" fill="#F4F4F5"/>
<path d="M524.418 1198.24L437.042 1215.63C453.756 1300.18 486.975 1378.78 533.24 1447.93L607.315 1398.41C567.457 1338.83 538.811 1271.1 524.418 1198.24Z" fill="#3A65EB"/>
<path d="M760.425 1551.62L710.933 1625.73C780.04 1672.03 858.596 1705.26 943.094 1722.01L960.481 1634.58C887.659 1620.18 819.968 1591.52 760.425 1551.64L760.425 1551.62Z" fill="#F4F4F5"/>
<path d="M607.311 1398.41L533.236 1447.93C580.244 1518.19 640.716 1578.67 710.938 1625.73L760.429 1551.61C699.911 1511.08 647.819 1458.96 607.311 1398.41Z" fill="#2A2A2A"/>
<path d="M1327.59 702.336L1377.08 628.218C1317.53 588.338 1249.84 559.675 1177.02 545.275L1159.63 632.701C1220.76 644.803 1277.58 668.843 1327.56 702.336L1327.59 702.336Z" fill="#2A2A2A"/>
<path d="M977.815 632.701L960.428 545.275C887.607 559.675 819.915 588.338 760.372 628.218L809.864 702.336C859.843 668.843 916.67 644.803 977.792 632.701L977.815 632.701Z" fill="#F4F4F5"/>
<path d="M1525.71 998.922L1613.08 981.525C1598.69 908.662 1570.04 840.931 1530.19 781.354L1456.11 830.874C1489.59 880.882 1513.61 937.742 1525.71 998.899L1525.71 998.922Z" fill="url(#paint9_linear_10_320)"/>
<path d="M681.411 830.934L607.336 781.414C567.478 840.991 538.832 908.721 524.44 981.584L611.816 998.981C623.911 937.825 647.937 880.965 681.411 830.957L681.411 830.934Z" fill="#CA2240"/>
<path d="M1068.72 1556.03C1037.62 1556.03 1007.23 1552.96 977.819 1547.13L960.432 1634.56C995.462 1641.48 1031.65 1645.15 1068.7 1645.15C1105.75 1645.15 1141.96 1641.48 1176.97 1634.56L1159.58 1547.13C1130.17 1552.96 1099.78 1556.03 1068.68 1556.03L1068.72 1556.03Z" fill="#3A65EB"/>
<path d="M1525.71 1180.87C1513.61 1242.02 1489.59 1298.88 1456.11 1348.89L1530.19 1398.41C1570.04 1338.84 1598.69 1271.11 1613.08 1198.24L1525.71 1180.84L1525.71 1180.87Z" fill="url(#paint10_linear_10_320)"/>
<path d="M809.883 1477.5L760.391 1551.62C819.935 1591.5 887.626 1620.16 960.448 1634.56L977.835 1547.13C916.713 1535.03 859.886 1510.99 809.906 1477.5L809.883 1477.5Z" fill="#3A65EB"/>
<path d="M691.979 1089.88C691.979 1064.7 694.463 1040.1 699.176 1016.32L611.799 998.922C605.972 1028.35 602.908 1058.75 602.908 1089.88C602.908 1121 605.972 1151.41 611.799 1180.84L699.176 1163.44C694.463 1139.65 691.979 1115.06 691.979 1089.88Z" fill="white"/>
<path d="M995.25 720.088L977.863 632.661C916.741 644.763 859.913 668.803 809.934 702.296L859.426 776.414C899.864 749.331 945.805 729.867 995.25 720.088Z" fill="white"/>
<path d="M859.4 776.397L809.908 702.28C759.117 736.307 715.382 780.067 681.374 830.888L755.449 880.408C782.957 839.296 818.335 803.898 859.4 776.397Z" fill="white"/>
<path d="M1382.04 880.408L1456.12 830.888C1422.11 780.067 1378.37 736.307 1327.58 702.28L1278.09 776.397C1319.18 803.922 1354.56 839.32 1382.04 880.408Z" fill="white"/>
<path d="M1278.09 1403.39L1327.58 1477.51C1378.37 1443.48 1422.11 1399.72 1456.12 1348.9L1382.04 1299.38C1354.53 1340.49 1319.16 1375.89 1278.09 1403.39Z" fill="white"/>
<path d="M699.114 1163.47L611.737 1180.87C623.832 1242.03 647.858 1298.89 681.332 1348.9L755.407 1299.38C728.34 1258.91 708.887 1212.95 699.114 1163.47Z" fill="white"/>
<path d="M1525.73 998.922L1438.35 1016.32C1443.06 1040.1 1445.55 1064.7 1445.55 1089.88C1445.55 1115.06 1443.06 1139.65 1438.35 1163.44L1525.73 1180.84C1531.56 1151.41 1534.62 1121 1534.62 1089.88C1534.62 1058.75 1531.53 1028.35 1525.73 998.922Z" fill="white"/>
<path d="M859.426 1403.42L809.934 1477.54C859.913 1511.03 916.741 1535.07 977.863 1547.17L995.25 1459.75C945.804 1449.97 899.841 1430.5 859.426 1403.42Z" fill="white"/>
<path d="M829.523 929.959L755.448 880.439C728.381 920.9 708.928 966.867 699.154 1016.34L786.531 1033.74C794.006 995.97 808.84 960.851 829.523 929.959Z" fill="white"/>
<path d="M786.531 1146.08L699.154 1163.48C708.927 1212.95 728.381 1258.94 755.448 1299.38L829.523 1249.86C808.863 1218.97 794.006 1183.85 786.531 1146.08Z" fill="white"/>
<path d="M1228.59 850.522L1278.08 776.405C1237.64 749.322 1191.7 729.858 1142.25 720.079L1124.87 807.506C1162.61 814.985 1197.71 829.827 1228.59 850.522Z" fill="white"/>
<path d="M1068.74 802.035C1087.96 802.035 1106.72 803.94 1124.87 807.54L1142.26 720.113C1118.49 715.398 1093.91 712.913 1068.74 712.913C1043.58 712.913 1018.99 715.398 995.223 720.113L1012.61 807.54C1030.76 803.94 1049.54 802.035 1068.74 802.035Z" fill="white"/>
<path d="M1356.46 1089.91C1356.46 1109.14 1354.56 1127.91 1350.96 1146.08L1438.34 1163.47C1443.05 1139.69 1445.54 1115.09 1445.54 1089.91C1445.54 1064.73 1443.05 1040.14 1438.34 1016.35L1350.96 1033.75C1354.56 1051.91 1356.46 1070.7 1356.46 1089.91Z" fill="white"/>
<path d="M1308.02 1249.86L1382.09 1299.38C1409.16 1258.92 1428.61 1212.95 1438.38 1163.48L1351.01 1146.08C1343.53 1183.85 1328.7 1218.97 1308.02 1249.86Z" fill="white"/>
<path d="M829.504 1249.87L755.429 1299.39C782.937 1340.5 818.315 1375.9 859.38 1403.4L908.872 1329.29C877.51 1308.27 850.489 1281.25 829.481 1249.85L829.504 1249.87Z" fill="white"/>
<path d="M1068.74 1377.77C1049.52 1377.77 1030.76 1375.87 1012.61 1372.27L995.224 1459.69C1018.99 1464.41 1043.58 1466.9 1068.74 1466.9C1093.91 1466.9 1118.49 1464.41 1142.26 1459.69L1124.87 1372.27C1106.72 1375.87 1087.94 1377.77 1068.74 1377.77Z" fill="white"/>
<path d="M1068.74 891.148C1082 891.148 1094.95 892.472 1107.49 894.957L1124.87 807.507C1106.72 803.907 1087.94 802.002 1068.74 802.002C1049.54 802.002 1030.76 803.907 1012.61 807.507L1030 894.957C1042.53 892.472 1055.49 891.148 1068.74 891.148Z" fill="white"/>
<path d="M958.363 924.632L908.871 850.515C877.509 871.535 850.488 898.548 829.48 929.951L903.555 979.471C918.064 957.8 936.704 939.149 958.363 924.632Z" fill="white"/>
<path d="M1029.96 895.007L1012.57 807.557C974.828 815.036 939.728 829.878 908.854 850.573L958.346 924.691C979.656 910.406 1003.89 900.163 1029.96 895.007Z" fill="white"/>
<path d="M958.407 1255.17L908.915 1329.29C939.789 1349.96 974.889 1364.83 1012.63 1372.31L1030.02 1284.86C1003.95 1279.7 979.74 1269.46 958.407 1255.17Z" fill="white"/>
<path d="M1263.56 1051.13L1350.96 1033.73C1343.49 995.965 1328.65 960.846 1307.97 929.954L1233.89 979.474C1248.17 1000.8 1258.41 1025.05 1263.56 1051.13Z" fill="white"/>
<path d="M1228.6 850.515L1179.1 924.632C1200.76 939.149 1219.4 957.8 1233.91 979.471L1307.99 929.951C1286.98 898.571 1259.98 871.535 1228.6 850.515Z" fill="white"/>
<path d="M1179.11 1255.18L1228.6 1329.29C1259.97 1308.27 1286.99 1281.26 1307.99 1249.86L1233.92 1200.34C1219.41 1222.01 1200.77 1240.66 1179.11 1255.18Z" fill="white"/>
</g>
<defs>
<linearGradient id="paint0_linear_10_320" x1="1928.5" y1="535.625" x2="2005.91" y2="890.365" gradientUnits="userSpaceOnUse">
<stop offset="0.53" stop-color="#8F5AF4"/>
<stop offset="1" stop-color="#8F5AF4" stop-opacity="0"/>
</linearGradient>
<linearGradient id="paint1_linear_10_320" x1="436.828" y1="201.522" x2="856.881" y2="80.4909" gradientUnits="userSpaceOnUse">
<stop offset="0.53" stop-color="#8F5AF4"/>
<stop offset="1" stop-color="#8F5AF4" stop-opacity="0"/>
</linearGradient>
<linearGradient id="paint2_linear_10_320" x1="902.761" y1="200.25" x2="1226.1" y2="262.681" gradientUnits="userSpaceOnUse">
<stop offset="0.502838" stop-color="#01A74D"/>
<stop offset="1" stop-color="#01A74D" stop-opacity="0"/>
</linearGradient>
<linearGradient id="paint3_linear_10_320" x1="1656.42" y1="368.148" x2="1815.84" y2="567.609" gradientUnits="userSpaceOnUse">
<stop offset="0.502838" stop-color="#01A74D"/>
<stop offset="1" stop-color="#01A74D" stop-opacity="0"/>
</linearGradient>
<linearGradient id="paint4_linear_10_320" x1="1753.17" y1="1561.23" x2="1507.61" y2="1730.6" gradientUnits="userSpaceOnUse">
<stop offset="0.53" stop-color="#8F5AF4"/>
<stop offset="1" stop-color="#8F5AF4" stop-opacity="0"/>
</linearGradient>
<linearGradient id="paint5_linear_10_320" x1="901.493" y1="1860.13" x2="656.587" y2="1718.08" gradientUnits="userSpaceOnUse">
<stop offset="0.502838" stop-color="#01A74D"/>
<stop offset="1" stop-color="#01A74D" stop-opacity="0"/>
</linearGradient>
<linearGradient id="paint6_linear_10_320" x1="315.881" y1="951.964" x2="284.11" y2="1257.23" gradientUnits="userSpaceOnUse">
<stop stop-color="#8F5AF4" stop-opacity="0"/>
<stop offset="0.47" stop-color="#8F5AF4"/>
</linearGradient>
<linearGradient id="paint7_linear_10_320" x1="1918.66" y1="1573.94" x2="1598.54" y2="1828.71" gradientUnits="userSpaceOnUse">
<stop offset="0.502838" stop-color="#01A74D"/>
<stop offset="1" stop-color="#01A74D" stop-opacity="0"/>
</linearGradient>
<linearGradient id="paint8_linear_10_320" x1="533.579" y1="744.638" x2="411.486" y2="983.927" gradientUnits="userSpaceOnUse">
<stop stop-color="#01A74D" stop-opacity="0"/>
<stop offset="0.5" stop-color="#01A74D"/>
</linearGradient>
<linearGradient id="paint9_linear_10_320" x1="1689.51" y1="696.305" x2="1757.21" y2="929.761" gradientUnits="userSpaceOnUse">
<stop offset="0.502838" stop-color="#01A74D"/>
<stop offset="1" stop-color="#01A74D" stop-opacity="0"/>
</linearGradient>
<linearGradient id="paint10_linear_10_320" x1="1508.74" y1="1367.89" x2="1612.99" y2="1179.57" gradientUnits="userSpaceOnUse">
<stop stop-color="#8F5AF4" stop-opacity="0"/>
<stop offset="0.47" stop-color="#8F5AF4"/>
</linearGradient>
<clipPath id="clip0_10_320">
<rect width="2158" height="2180" fill="white" transform="translate(2158 2180) rotate(-180)"/>
</clipPath>
</defs>
</svg>
